<?xml version="1.0" encoding="utf-8"?>
<!-- Generator: Adobe Illustrator 24.1.0, SVG Export Plug-In . SVG Version: 6.00 Build 0)  -->
<svg version="1.1" id="Layer_1" xmlns="http://www.w3.org/2000/svg" xmlns:xlink="http://www.w3.org/1999/xlink" x="0px" y="0px"
	 viewBox="0 0 485.7 477.7" style="enable-background:new 0 0 485.7 477.7;" xml:space="preserve">
<style type="text/css">
	.st0{fill:#EB0D8C;stroke:#231F20;stroke-width:0.25;stroke-miterlimit:10;}
	.st1{fill:url(#SVGID_1_);}
	.st2{fill:#FFFFFF;}
	.st3{fill:url(#SVGID_2_);}
	.st4{fill:url(#SVGID_3_);}
	.st5{fill:url(#SVGID_4_);}
	.st6{fill:url(#SVGID_5_);}
	.st7{fill:url(#SVGID_6_);}
	.st8{fill:url(#SVGID_7_);}
	.st9{fill:url(#SVGID_8_);}
	.st10{fill:url(#SVGID_9_);}
	.st11{fill:none;stroke:#010101;stroke-miterlimit:10;}
	.st12{fill:#3D3D3D;stroke:#3D3D3D;stroke-miterlimit:10;}
	.st13{fill:url(#SVGID_10_);stroke:url(#SVGID_11_);stroke-miterlimit:10;}
	.st14{fill:url(#SVGID_12_);}
	.st15{fill:#1E1E1E;}
</style>
<path class="st0" d="M295.4,115.7"/>
<radialGradient id="SVGID_1_" cx="297.23" cy="-0.1734" r="240.7262" fx="296.4113" fy="-107.9828" gradientTransform="matrix(1 0 0 -0.98 -54.4 238.7)" gradientUnits="userSpaceOnUse">
	<stop  offset="5.000000e-02" style="stop-color:#FFFFFF"/>
	<stop  offset="0.27" style="stop-color:#C9E5EB"/>
	<stop  offset="0.51" style="stop-color:#94CED6"/>
	<stop  offset="0.73" style="stop-color:#70BCC8"/>
	<stop  offset="0.9" style="stop-color:#56B1BE"/>
	<stop  offset="1" style="stop-color:#4DADBC"/>
</radialGradient>
<path class="st1" d="M485.7,29.9v418c-0.1,16.5-13.4,29.8-29.9,29.9H29.9C13.4,477.7,0,464.3,0,447.8v-418C0.1,13.4,13.4,0.1,29.9,0
	h425.9C472.3,0.1,485.6,13.4,485.7,29.9z"/>
<path class="st2" d="M151.6,416c-3.2,0.5-6.2,1-9.2,1.8c-0.5,0-1.2,0.5-1.7,0.5c-1-0.3-1.9-0.7-2.7-1.2c0.8-0.8,1.2-1.7,2-2
	c3.9-1,7.9-1.7,11.9-2.2c2.2-0.2,4-1.7,4.8-3.7c0.3-1,0.7-1.9,1.2-2.7c0.7-0.7,1.4-1.2,2.2-1.7c0.3,1,0.3,2,0,3
	c-0.4,1.2-1,2.4-1.7,3.5h4.2c6-0.7,11.7-1.5,17.7-2c4.5-0.2,9-0.7,13.4-0.2c5.2,1,10.5-0.2,15.7-0.5c5.7-0.2,11.5-0.8,16.9-0.8
	c2.7,0,5.5,1.5,8.5,0c0.5-0.2,1.5,1.2,2.5,2c-0.7,0.6-1.6,1.1-2.5,1.5l-28.4,0.8c-1.6-0.1-3,0.9-3.2,2.5c-1.2,5.2-4.8,9.5-9.7,11.7
	c-3.7,1.7-4.7,4.5-5,8c-0.3,3.5,2,5.2,5.2,3.7c3-1.5,5.8-3.5,8.2-5.7c2.2-1.7,4.2-4,6.5-6l1,0.8c-0.5,1.4-1,2.8-1.2,4.2
	c0,2.3,0,4.7,0.2,7c2-0.8,4.2-1.2,5.7-2.5c2-1.5,3.2-3.5,4.7-5.2c1.8-2,3.8-3.8,6-5.5c1-0.8,2.7-0.2,4-0.2c-0.2,1.2,0,3.2-0.7,4
	c-2.2,2-4.6,4-7,5.7c1,2.2,3.2,2,4.7,1.2c2.6-1.7,5-3.6,7.2-5.7c1-1.2,2-2.2,3-3.7c0.5,0.5,0.8,0.5,0.8,0.8
	c-0.8,6.7-11,15.4-17.4,9.7c-0.8-0.1-1.7-0.1-2.5,0.2c-1.5,0.9-2.9,1.9-4.2,3c-4.5,2.5-8.2,0.8-8.7-4.5c0-0.5-0.2-0.8-0.2-1.5
	c-1.5,1.4-3,2.6-4.7,3.7c-1.7,1.3-3.7,2.2-5.7,2.7c-4,1-6.2-0.8-7.7-5.5l-3,2.2c-2.7,2-4.7,2-7.2-0.5c-0.6-1-1.9-1.2-2.9-0.6
	c-0.1,0-0.1,0.1-0.1,0.1c-0.2,0-0.2,0.2-0.5,0.5l-2.2,1.5c-3,1.7-6,2.2-8.2-1.2c-1.7,1-3.2,2-4.7,3c-5.7,3-9.5,0.8-9.5-5.7
	c0-0.9-0.1-1.8-0.2-2.7c-1.2,1.5-2.2,2.5-3,3.5c-3.7,4.5-5.7,4.5-10.5,1.5c-0.5-0.5-2,0-3,0.5c-2.5,1.5-5,3.5-8.5,2.5
	c-0.5-0.2-1.5,0.8-2.2,1.2c-4,3-8,6.7-12.2,9c-5,2.7-10-0.5-10-6.2c0.2-4.3,0.8-8.6,2-12.7c1.2-6,3.2-11.7,4.5-17.7
	c0.2-1.2-0.2-2.7-0.5-4.2c-1.5,0.2-3,0-4.2,0.8c-7.4,4.1-13.8,9.9-18.6,16.8c-5.7,8.2-10.7,16.4-13.7,25.9c0,0.4-0.2,0.8-0.5,1
	c-0.9,0.7-1.8,1.4-2.7,2c-0.4-1-0.6-2.1-0.5-3.2c3.5-10,7-19.9,10.4-29.9c0.8-2.5,0.5-5.2,1-8c0.3-0.9,0.7-1.7,1.2-2.5
	c0.5,0.8,1.5,1.5,1.2,2.2c-0.5,4-1.2,7.7-2,11.5c-0.3,1.5-0.7,3-1.2,4.5l0.8,0.5c1.5-2,3.2-4,4.7-6c5.5-7.5,11.4-13.9,20.2-17.9
	c2.2-1,4-1.2,6,0c2.2,1.5,2.2,4,1.8,6.2c-1.8,6.5-3.5,12.7-5,19.2c-1,3.3-1.5,6.6-1.7,10c-0.2,4.5,2.5,6,6.5,4.2
	c1.5-0.6,3-1.4,4.2-2.5c4-3.7,8.5-7.2,11.7-11.9c2-3,5.5-5,8.7-6.7c1.5-0.8,4,0.5,5.7,1.2c0.5,0.2,0,2.5,0,4c0,0.2-0.2,0.5-0.2,0.8
	c0,1.3,0.2,2.7,0.5,4c1.2-0.2,2.7-0.5,3.5-1.2C146.6,429.1,150.3,422.9,151.6,416z M196.4,412h-5.2c-4.7,0.2-9.5,0.5-14.2,1
	c-6.2,0.5-12.7,1-18.9,1.7c-0.9,0-1.8,0.3-2.5,1c-3.2,5.7-5.7,11.7-6,18.4c0,3.2,1.8,4.5,4.7,3c3.5-2,6.8-4.3,10-6.7
	c2.5-1.7,4.7-3.5,7.2-5.2c2.5-1.8,4.7-0.2,6.5,1c0.8,0.5,0,2.7,0,4.2c0,1-0.5,2-0.5,3c0,1.7,1.2,2.7,2.5,1.5c2.5-2,5.5-4,6.7-6.7
	c2.5-5,5-10,9-14.2C195.9,413.3,196.1,412.6,196.4,412L196.4,412z M164.5,436.1c3.7-0.2,9.2-4.5,10-7.2c0.2-0.7,0.1-1.4-0.2-2
	c-0.6-0.4-1.4-0.4-2,0c-2.2,1.5-4.2,3.2-6,5.2C165.3,432.9,165.3,434.6,164.5,436.1L164.5,436.1z M124,436.1
	c3.5-0.8,8.2-4.5,9.2-7.2c0.5-1.2,0.5-2.5-1.5-2.5C128.4,426.9,123.7,432.4,124,436.1L124,436.1z M192,422.9c4.2-0.7,8.5-5.7,9.2-11
	C196.4,415,194.2,418.7,192,422.9L192,422.9z"/>
<path class="st2" d="M315.1,424.7l-7.7,3.5c-0.7-4-0.2-4.5,3.5-4.7c1.6-0.2,3.2-0.5,4.7-1c1,0,2.2-0.2,2.7,0.5
	c0.5,0.8,0.6,1.8,0.2,2.7c-1,2-2.2,4-3.5,6c-0.4,0.9-0.8,1.8-1,2.7c0,0.5,0,1.5,0.2,1.5c0.6,0.3,1.4,0.3,2,0c1.9-1.4,3.8-3,5.5-4.7
	l5.5-5.5l0.8,0.5c-0.2,1-0.2,1.7-0.5,2.7c-0.5,1.4-0.9,2.8-1.2,4.2c0,1.4,0.3,2.9,0.8,4.2c1.4-0.2,2.7-0.6,4-1
	c1.3-0.9,2.5-2,3.5-3.2c3-2.7,6-5.5,9.2-8c1.7-1.2,6-0.5,7,1.2c0.5,0.7,0,2,0,3v5.7c1.7-0.6,3.3-1.4,4.7-2.5c2.1-1.8,4-3.8,5.7-6
	c1.8-2,2.7-2.2,3.7,0.5l3.7-2.2c2.5-1.2,4.5,0,4.5,2.7c0,1.8-0.5,3.5-0.5,5c-0.2,2,0.8,3,2.5,1.7c3.2-2.1,6.1-4.5,8.7-7.2
	c2.5-2.7,2.2-3,4.5-0.2c1-0.8,2.1-1.4,3.2-2c2.5-1.2,4.7,0,4.7,2.7c0,1.4-0.2,2.8-0.5,4.2c-0.2,3,0.5,3.7,2.7,2.2
	c2.7-1.8,5.3-3.7,7.7-5.7c2.1-1.7,4.2-3.3,6.5-4.7c1.1-0.3,2.3-0.1,3.2,0.5c0.5,0.9,0.5,2.1,0,3c-2.2,2.2-4.7,4.5-7.5,7
	c1,2,3.2,1.8,4.7,1c2.7-1.8,5.2-3.9,7.5-6.2c1-1.1,2-2.2,2.7-3.5c0.5,4-3.5,9.5-8,11.5s-7.5,1.2-11-3c-1.5,1.2-3.2,2.2-5,3
	c-1.8,0.7-3.7,0.7-5.5,0c-2-1-1.7-3.2-1.2-5.5c0.4-1.6,0.6-3.1,0.7-4.7c-3.7,2.1-6.7,5.3-8.7,9v0.2l-3.5,4c-0.5-1.7-0.8-3.2-1.2-5.2
	c-1.2,0.8-2.4,1.4-3.7,2c-1.7,0.5-3.5,0.5-5.2,0c-2-1-1.7-3-1.2-5.2c0.4-1.5,0.6-3,0.5-4.5c-3.6,2-6.5,4.9-8.5,8.5
	c0,0.2,0,0.5-0.2,0.5c-1,1.2-2.2,2.5-3.2,3.7l-1.2-4.7c-0.9,0.5-1.7,1.1-2.5,1.7c-2.7,2-4.7,1.8-7.2-0.5c-0.9-0.5-2-0.7-3-0.5
	c-3,1.7-5.7,4.5-9.7,2c-0.2-0.2-1.2,0.5-1.8,0.8c-5.5,3.5-9,2-10.2-4.5c-2,1.2-3.7,2.7-5.7,4s-3.7,1.2-4.7-0.5
	c-0.8-1.4-0.9-3-0.5-4.5c1.2-2.7,2.7-5.3,4.5-7.7L315.1,424.7z M337.6,436.6c3.8-1.3,7-4,9-7.5c0.2-0.7,0.2-1.5,0-2.2
	c0-0.2-1-0.2-1.8-0.2C342.1,427.2,337.6,432.9,337.6,436.6L337.6,436.6z"/>
<path class="st2" d="M252.7,448.1c1-1.5,1-2.5-0.8-3.5c-2.7-1.7-5.2-3.7-8-5.7l0.5-0.5l10.7,6l6.5-11.7c-2.7-2.5-2.7-2.7,0.5-4.7
	c1.6-1,2.9-2.5,3.7-4.2c1.5-2.7,2.7-5.7,4-8.5c0.2-0.8,0.5-1.5,1-3c-1.4,0.4-2.8,0.9-4.2,1.5c-7,3.2-13.7,6.7-18.9,12.7
	c-0.2,0.5-1.2,0.5-1.7,0.7c0-0.7-0.5-2,0-2.2c2.3-2.5,4.8-4.9,7.5-7c9.5-6.5,19.7-11,31.1-12.2c5.5-0.5,10.7-0.8,15.7,1.7
	c3.5,1.7,4.2,4.7,2.2,8c-3,5.2-8.2,7.7-13.5,10.2l-2.2,1c1,0.7,1.5,1,2.2,1.5c3,1.5,5.7,3,8.7,4.7c5.7,4,5.7,11,0,15.4
	c-5,3.7-11,5-16.9,5.2c-7.7,0.2-15.3-1.6-22.2-5.2c-2-1-3.2-0.7-4.5,1.2c-1.5,2.2-3,4.5-4.7,6.7c-1.5,2.2-3.2,4.2-4.7,6.2
	c-0.2-0.7,0.2-1.5,0.5-2.2c0.4-1.2,0.8-2.5,1-3.7 M279.8,451.1c4.5-0.2,10-1,14.7-3.7c3.2-2,5.5-6,4.7-8.5c-1.3-3.2-3.8-5.8-7-7.2
	c-8-3.7-15.9-2.2-23.9-1c-2.5,0.2-4.6,1.9-5.5,4.2c-1.3,2.7-2.7,5.2-4.2,7.7c-1,1.7-0.7,2.7,1.2,3.7
	C266,449.4,272.8,451,279.8,451.1L279.8,451.1z M268.8,424.9l0.5,1.2c4.7-0.5,10-0.5,14.7-1.7c5.7-1.5,11.2-3.7,14.9-8.5
	c1-1.2,2.2-3.7,1.7-4.7c-1-1.5-2.7-2.5-4.5-2.7c-5.7,0-11.5,0.8-17.2,1.2c-1.2,0.2-3,0.8-3.5,1.7C273,415.8,270.7,420.3,268.8,424.9
	L268.8,424.9z"/>
<path class="st2" d="M222,414.5c-0.5,2.2-4.2,5.7-6.2,6c-0.6,0-1.1-0.3-1.5-0.7c-0.2-0.5-0.1-1.1,0.3-1.5c2.2-1.5,4.7-3,7-4.5
	L222,414.5z"/>
<path class="st2" d="M340.8,414.5c-0.5,2.2-4.2,5.7-6.2,6c-0.6,0-1.1-0.3-1.5-0.7c-0.2-0.5-0.1-1.1,0.2-1.5c2.2-1.5,4.7-3,7-4.5
	L340.8,414.5z"/>
<path class="st2" d="M253.9,411c-3.5-0.7-7.5,1.8-10.5-2l10.7,0.8L253.9,411z"/>
<linearGradient id="SVGID_2_" gradientUnits="userSpaceOnUse" x1="328.265" y1="125.1403" x2="259.22" y2="125.1403" gradientTransform="matrix(1 0 0 -1 -13.78 362.62)">
	<stop  offset="0" style="stop-color:#F7B2D0"/>
	<stop  offset="0.5" style="stop-color:#FDF5A6"/>
	<stop  offset="1" style="stop-color:#96CEF0"/>
</linearGradient>
<path class="st3" d="M312.4,196.9l-6.2,17.9l-60.7,172.3l30.2-161.3v-0.5l0.2-0.7l26.4-136.7C302,87.6,320.6,162.6,312.4,196.9z"/>
<linearGradient id="SVGID_3_" gradientUnits="userSpaceOnUse" x1="365.5289" y1="118.555" x2="259.72" y2="118.555" gradientTransform="matrix(1 0 0 -1 -13.78 362.62)">
	<stop  offset="0" style="stop-color:#F7B2D0"/>
	<stop  offset="0.5" style="stop-color:#FDF5A6"/>
	<stop  offset="1" style="stop-color:#96CEF0"/>
</linearGradient>
<path class="st4" d="M344.8,216.1l-97.6,171l0,0l-1.2,1l60.2-173.2l6-17.4l0.2-0.5l33.6-96.8C346,100.1,359.7,172.5,344.8,216.1z"/>
<linearGradient id="SVGID_4_" gradientUnits="userSpaceOnUse" x1="415.4578" y1="103.8553" x2="262.44" y2="103.8553" gradientTransform="matrix(1 0 0 -1 -13.78 362.62)">
	<stop  offset="0" style="stop-color:#F7B2D0"/>
	<stop  offset="0.5" style="stop-color:#FDF5A6"/>
	<stop  offset="1" style="stop-color:#96CEF0"/>
</linearGradient>
<path class="st5" d="M395.3,227L253.7,382.6l0,0l-5,3.5l145.4-254.7C394.3,131.2,410.2,202.4,395.3,227z"/>
<linearGradient id="SVGID_5_" gradientUnits="userSpaceOnUse" x1="461.9966" y1="81.575" x2="270.92" y2="81.575" gradientTransform="matrix(1 0 0 -1 -13.78 362.62)">
	<stop  offset="0" style="stop-color:#F7B2D0"/>
	<stop  offset="0.5" style="stop-color:#FDF5A6"/>
	<stop  offset="1" style="stop-color:#96CEF0"/>
</linearGradient>
<path class="st6" d="M445.3,253.7L257.1,380.4l180-198.6C437.1,181.7,455,225.3,445.3,253.7z"/>
<linearGradient id="SVGID_6_" gradientUnits="userSpaceOnUse" x1="225.4503" y1="256.06" x2="294.5203" y2="256.06" gradientTransform="matrix(1 0 0 1 -54.4 -19.81)">
	<stop  offset="0" style="stop-color:#F7B2D0"/>
	<stop  offset="0.5" style="stop-color:#FDF5A6"/>
	<stop  offset="1" style="stop-color:#96CEF0"/>
</linearGradient>
<path class="st7" d="M240.2,385.8l-60.7-172.3l-6.2-17.9c-8.5-34.4,10.2-109,10.2-109l26.1,136.1L240.2,385.8z"/>
<linearGradient id="SVGID_7_" gradientUnits="userSpaceOnUse" x1="188.18" y1="263.515" x2="294.763" y2="263.515" gradientTransform="matrix(1 0 0 1 -54.4 -19.81)">
	<stop  offset="0" style="stop-color:#F7B2D0"/>
	<stop  offset="0.5" style="stop-color:#FDF5A6"/>
	<stop  offset="1" style="stop-color:#96CEF0"/>
</linearGradient>
<path class="st8" d="M240.2,388.6l-0.5-0.5l0,0l-99.1-173.3c-14.9-43.6-1.2-116-1.2-116l33.6,96.6c0,0.2,0,0.2,0.2,0.5l6.2,17.4
	L240.2,388.6z"/>
<linearGradient id="SVGID_8_" gradientUnits="userSpaceOnUse" x1="138.2" y1="278.45" x2="292.48" y2="278.45" gradientTransform="matrix(1 0 0 1 -54.4 -19.81)">
	<stop  offset="0" style="stop-color:#F7B2D0"/>
	<stop  offset="0.5" style="stop-color:#FDF5A6"/>
	<stop  offset="1" style="stop-color:#96CEF0"/>
</linearGradient>
<path class="st9" d="M238,387.1l-3.2-2.2L89.9,225.8c-14.9-24.4,1.2-95.6,1.2-95.6L238,387.1z"/>
<linearGradient id="SVGID_9_" gradientUnits="userSpaceOnUse" x1="91.755" y1="305.71" x2="293.87" y2="305.71" gradientTransform="matrix(1 0 0 1 -54.4 -19.81)">
	<stop  offset="0" style="stop-color:#F7B2D0"/>
	<stop  offset="0.5" style="stop-color:#FDF5A6"/>
	<stop  offset="1" style="stop-color:#96CEF0"/>
</linearGradient>
<path class="st10" d="M239.5,391.3L46.6,263.9c-21.9-25.9,2-83.4,2-83.4L239.5,391.3z"/>
<path class="st11" d="M244.5,326.6"/>
<path class="st2" d="M389.1,440.9"/>
<path class="st2" d="M380.1,450.6"/>
<path class="st12" d="M239.2,328.3l8.7,2.5v0.5c2-9,3.5-17.4,3.5-17.4s19.4-113,71.4-217.1c1.7-3.2-1.5-6-3.7-3
	c-32.1,44.1-74.7,113.8-78.9,203.9C238.7,323.3,238.5,321.4,239.2,328.3"/>
<linearGradient id="SVGID_10_" gradientUnits="userSpaceOnUse" x1="290.29" y1="353.625" x2="304.01" y2="353.625" gradientTransform="matrix(1 0 0 1 -54.4 -19.81)">
	<stop  offset="0" style="stop-color:#FDECF3"/>
	<stop  offset="0.11" style="stop-color:#F5E9F3"/>
	<stop  offset="0.23" style="stop-color:#F9F1F2"/>
	<stop  offset="0.35" style="stop-color:#FFFEF1"/>
	<stop  offset="0.48" style="stop-color:#FBFCF1"/>
	<stop  offset="0.6" style="stop-color:#F1F3F2"/>
	<stop  offset="0.71" style="stop-color:#DDE5F4"/>
	<stop  offset="0.71" style="stop-color:#DCE4F4"/>
	<stop  offset="1" style="stop-color:#FEE9DF"/>
</linearGradient>
<linearGradient id="SVGID_11_" gradientUnits="userSpaceOnUse" x1="290.14" y1="353.5444" x2="304.51" y2="353.5444" gradientTransform="matrix(1 0 0 1 -54.4 -19.81)">
	<stop  offset="0" style="stop-color:#FDECF3"/>
	<stop  offset="0.11" style="stop-color:#F5E9F3"/>
	<stop  offset="0.23" style="stop-color:#F9F1F2"/>
	<stop  offset="0.35" style="stop-color:#FFFEF1"/>
	<stop  offset="0.48" style="stop-color:#FBFCF1"/>
	<stop  offset="0.6" style="stop-color:#F1F3F2"/>
	<stop  offset="0.71" style="stop-color:#DDE5F4"/>
	<stop  offset="0.71" style="stop-color:#DCE4F4"/>
	<stop  offset="1" style="stop-color:#FEE9DF"/>
</linearGradient>
<path class="st13" d="M249.6,325.4v16.9h-8l-5.9-1.2c0,0,1.5,0.4,3.3-12.3v-0.5L249.6,325.4z"/>
<linearGradient id="SVGID_12_" gradientUnits="userSpaceOnUse" x1="297.5512" y1="359.71" x2="297.5512" y2="409.5" gradientTransform="matrix(1 0 0 1 -54.4 -19.81)">
	<stop  offset="0" style="stop-color:#3D7ABE"/>
	<stop  offset="4.000000e-02" style="stop-color:#3C7FC2"/>
	<stop  offset="9.000000e-02" style="stop-color:#248FCE"/>
	<stop  offset="0.16" style="stop-color:#35A2B4"/>
	<stop  offset="0.23" style="stop-color:#5ABD88"/>
	<stop  offset="0.31" style="stop-color:#91C952"/>
	<stop  offset="0.33" style="stop-color:#A1CD3E"/>
	<stop  offset="0.39" style="stop-color:#C1D83A"/>
	<stop  offset="0.46" style="stop-color:#EBE72B"/>
	<stop  offset="0.5" style="stop-color:#FDEE22"/>
	<stop  offset="0.73" style="stop-color:#F68854"/>
	<stop  offset="0.99" style="stop-color:#EE3889"/>
</linearGradient>
<path class="st14" d="M255.6,389.8c-40.8-9,25.4-25.6-7.5-49.8H236c-22.9,48,14.9,49.3,14.9,49.3L255.6,389.8z"/>
<path class="st15" d="M236.2,339.5c0,0-4.5,10-3,12s4-4.7,4-4.7s2.7-4,1.7-0.5s-5.7,15.4-2.2,11.5s3.5-2,3,0.2s-9.2,22.2-2.2,9.7
	c7.2-12.5,7.2-16.4,7.7-13.4s-9,19.7-4.5,13.7s8.7-16.9,8.2-13.2s0.7,3.7,0.7,3.7c1.5-1.2,2.9-2.7,4-4.2c1.2-2,2,6,2.7,4.5
	c2.5-6.2,0.2-10.2,0.2-10.2s-3.7-9.7-7.5-8.7C246.2,340.3,236.2,339.5,236.2,339.5z"/>
</svg>
