<svg id="Layer_1" data-name="Layer 1" xmlns="http://www.w3.org/2000/svg" xmlns:xlink="http://www.w3.org/1999/xlink" viewBox="0 0 410.91 304.69"><defs><style>.cls-1{fill:#eb0d8c;stroke:#231f20;stroke-width:0.25px;}.cls-1,.cls-10,.cls-11,.cls-12{stroke-miterlimit:10;}.cls-2{fill:url(#linear-gradient);}.cls-3{fill:url(#linear-gradient-2);}.cls-4{fill:url(#linear-gradient-3);}.cls-5{fill:url(#linear-gradient-4);}.cls-6{fill:url(#linear-gradient-5);}.cls-7{fill:url(#linear-gradient-6);}.cls-8{fill:url(#linear-gradient-7);}.cls-9{fill:url(#linear-gradient-8);}.cls-10{fill:none;stroke:#010101;}.cls-11{fill:#3d3d3d;stroke:#3d3d3d;}.cls-12{fill:url(#linear-gradient-9);stroke:url(#linear-gradient-10);}.cls-13{fill:url(#linear-gradient-11);}.cls-14{fill:#1e1e1e;}</style><linearGradient id="linear-gradient" x1="328.27" y1="354.86" x2="259.22" y2="354.86" gradientTransform="translate(40.62 -95.57)" gradientUnits="userSpaceOnUse"><stop offset="0" stop-color="#f7b2d0"/><stop offset="0.5" stop-color="#fdf5a6"/><stop offset="1" stop-color="#96cef0"/></linearGradient><linearGradient id="linear-gradient-2" x1="365.52" y1="361.46" x2="259.72" y2="361.46" xlink:href="#linear-gradient"/><linearGradient id="linear-gradient-3" x1="415.46" y1="376.14" x2="262.46" y2="376.14" xlink:href="#linear-gradient"/><linearGradient id="linear-gradient-4" x1="461.99" y1="398.42" x2="270.92" y2="398.42" xlink:href="#linear-gradient"/><linearGradient id="linear-gradient-5" x1="225.45" y1="283.95" x2="294.52" y2="283.95" gradientTransform="matrix(1, 0, 0, -1, 0, 542)" xlink:href="#linear-gradient"/><linearGradient id="linear-gradient-6" x1="188.18" y1="276.49" x2="294.73" y2="276.49" gradientTransform="matrix(1, 0, 0, -1, 0, 542)" xlink:href="#linear-gradient"/><linearGradient id="linear-gradient-7" x1="138.2" y1="261.55" x2="292.48" y2="261.55" gradientTransform="matrix(1, 0, 0, -1, 0, 542)" xlink:href="#linear-gradient"/><linearGradient id="linear-gradient-8" x1="91.7" y1="234.29" x2="293.87" y2="234.29" gradientTransform="matrix(1, 0, 0, -1, 0, 542)" xlink:href="#linear-gradient"/><linearGradient id="linear-gradient-9" x1="290.29" y1="186.37" x2="304.01" y2="186.37" gradientTransform="matrix(1, 0, 0, -1, 0, 542)" gradientUnits="userSpaceOnUse"><stop offset="0" stop-color="#fdecf3"/><stop offset="0.11" stop-color="#f5e9f3"/><stop offset="0.23" stop-color="#f9f1f2"/><stop offset="0.35" stop-color="#fffef1"/><stop offset="0.48" stop-color="#fbfcf1"/><stop offset="0.6" stop-color="#f1f3f2"/><stop offset="0.71" stop-color="#dde5f4"/><stop offset="0.71" stop-color="#dce4f4"/><stop offset="1" stop-color="#fee9df"/></linearGradient><linearGradient id="linear-gradient-10" x1="290.14" y1="186.45" x2="304.51" y2="186.45" xlink:href="#linear-gradient-9"/><linearGradient id="linear-gradient-11" x1="297.55" y1="180.29" x2="297.55" y2="130.5" gradientTransform="matrix(1, 0, 0, -1, 0, 542)" gradientUnits="userSpaceOnUse"><stop offset="0" stop-color="#3d7abe"/><stop offset="0.04" stop-color="#3c7fc2"/><stop offset="0.09" stop-color="#248fce"/><stop offset="0.16" stop-color="#35a2b4"/><stop offset="0.23" stop-color="#5abd88"/><stop offset="0.31" stop-color="#91c952"/><stop offset="0.33" stop-color="#a1cd3e"/><stop offset="0.39" stop-color="#c1d83a"/><stop offset="0.46" stop-color="#ebe72b"/><stop offset="0.5" stop-color="#fdee22"/><stop offset="0.73" stop-color="#f68854"/><stop offset="0.99" stop-color="#ee3889"/></linearGradient></defs><path class="cls-1" d="M349.76,137.49" transform="translate(-91.7 -108.44)"/><path class="cls-2" d="M366.8,218.72l-6.22,17.92L299.84,408.9,330,247.59v-.5l.25-.74L356.6,109.68C356.35,109.44,375,184.36,366.8,218.72Z" transform="translate(-91.7 -108.44)"/><path class="cls-3" d="M399.16,237.88l-97.58,171h0l-1.24,1,60.24-173.25,6-17.43.25-.49,33.61-96.84S414.1,194.32,399.16,237.88Z" transform="translate(-91.7 -108.44)"/><path class="cls-4" d="M449.7,248.84,308.06,404.42h0l-5,3.48L448.45,153.25C448.7,153,464.63,224.19,449.7,248.84Z" transform="translate(-91.7 -108.44)"/><path class="cls-5" d="M499.73,275.47,311.54,402.18l180-198.65S509.44,247.09,499.73,275.47Z" transform="translate(-91.7 -108.44)"/><path class="cls-6" d="M294.61,407.65,233.88,235.39l-6.23-17.92c-8.46-34.35,10.21-109,10.21-109L264,244.6Z" transform="translate(-91.7 -108.44)"/><path class="cls-7" d="M294.61,410.39l-.49-.5h0L195,236.64c-14.93-43.56-1.24-116-1.24-116l33.6,96.58c0,.25,0,.25.25.5l6.23,17.42Z" transform="translate(-91.7 -108.44)"/><path class="cls-8" d="M292.37,408.9l-3.23-2.24L144.26,247.59C129.33,223.2,145.51,152,145.51,152Z" transform="translate(-91.7 -108.44)"/><path class="cls-9" d="M293.87,413.13,101,285.68c-21.91-25.89,2-83.39,2-83.39Z" transform="translate(-91.7 -108.44)"/><path class="cls-10" d="M298.85,348.41" transform="translate(-91.7 -108.44)"/><path class="cls-11" d="M293.62,350.15l8.71,2.49v.5c2-9,3.49-17.43,3.49-17.43s19.41-113,71.44-217.06c1.74-3.24-1.5-6-3.74-3-32.11,44.06-74.67,113.76-78.91,203.87-1.49,25.64-1.74,23.65-1,30.62" transform="translate(-91.7 -108.44)"/><path class="cls-12" d="M304,347.16v16.93h-8l-5.86-1.16s1.5.41,3.3-12.28v-.5Z" transform="translate(-91.7 -108.44)"/><path class="cls-13" d="M310.05,411.64c-40.83-9,25.39-25.64-7.47-49.79h-12.2c-22.9,48,14.94,49.29,14.94,49.29Z" transform="translate(-91.7 -108.44)"/><path class="cls-14" d="M290.63,361.35s-4.48,10-3,11.95,4-4.73,4-4.73,2.74-4,1.74-.5-5.73,15.44-2.24,11.45,3.48-2,3,.25-9.21,22.16-2.24,9.71c7.21-12.45,7.21-16.43,7.71-13.44s-9,19.66-4.48,13.69,8.71-16.93,8.22-13.19.74,3.73.74,3.73a22.63,22.63,0,0,0,4-4.23c1.24-2,2,6,2.73,4.48,2.49-6.22.25-10.21.25-10.21s-3.73-9.71-7.46-8.71C300.59,362.1,290.63,361.35,290.63,361.35Z" transform="translate(-91.7 -108.44)"/></svg>