<svg
  id="Layer_1"
  data-name="Layer 1"
  xmlns="http://www.w3.org/2000/svg"
  xmlns:xlink="http://www.w3.org/1999/xlink"
  viewBox="0 0 485.66 477.74"
>
  <defs>
    <style>
      .cls-1 {
        fill: #eb0d8c;
        stroke: #231f20;
        stroke-width: 0.25px;
      }
      .cls-1,
      .cls-11,
      .cls-13,
      .cls-14 {
        stroke-miterlimit: 10;
      }
      .cls-2 {
        fill: url(#radial-gradient);
      }
      .cls-3 {
        fill: url(#linear-gradient);
      }
      .cls-4 {
        fill: url(#linear-gradient-2);
      }
      .cls-5 {
        fill: url(#linear-gradient-3);
      }
      .cls-6 {
        fill: url(#linear-gradient-4);
      }
      .cls-7 {
        fill: url(#linear-gradient-5);
      }
      .cls-8 {
        fill: url(#linear-gradient-6);
      }
      .cls-9 {
        fill: url(#linear-gradient-7);
      }
      .cls-10 {
        fill: url(#linear-gradient-8);
      }
      .cls-11 {
        fill: none;
        stroke: #010101;
      }
      .cls-12 {
        fill: #fff;
      }
      .cls-13 {
        fill: #3d3d3d;
        stroke: #3d3d3d;
      }
      .cls-14 {
        fill: url(#linear-gradient-9);
        stroke: url(#linear-gradient-10);
      }
      .cls-15 {
        fill: url(#linear-gradient-11);
      }
      .cls-16 {
        fill: #1e1e1e;
      }
    </style>
    <radialGradient
      id="radial-gradient"
      cx="297.23"
      cy="-0.17"
      fy="-107.98284073546324"
      r="240.73"
      gradientTransform="matrix(1, 0, 0, -0.98, -54.4, 238.7)"
      gradientUnits="userSpaceOnUse"
    >
      <stop offset="0.05" stop-color="#fff" />
      <stop offset="0.27" stop-color="#c9e5eb" />
      <stop offset="0.51" stop-color="#94ced6" />
      <stop offset="0.73" stop-color="#70bcc8" />
      <stop offset="0.9" stop-color="#56b1be" />
      <stop offset="1" stop-color="#4dadbc" />
    </radialGradient>
    <linearGradient
      id="linear-gradient"
      x1="328.26"
      y1="125.14"
      x2="259.22"
      y2="125.14"
      gradientTransform="matrix(1, 0, 0, -1, -13.78, 362.62)"
      gradientUnits="userSpaceOnUse"
    >
      <stop offset="0" stop-color="#f7b2d0" />
      <stop offset="0.5" stop-color="#fdf5a6" />
      <stop offset="1" stop-color="#96cef0" />
    </linearGradient>
    <linearGradient
      id="linear-gradient-2"
      x1="365.53"
      y1="118.55"
      x2="259.72"
      y2="118.55"
      xlink:href="#linear-gradient"
    />
    <linearGradient
      id="linear-gradient-3"
      x1="415.46"
      y1="103.86"
      x2="262.44"
      y2="103.86"
      xlink:href="#linear-gradient"
    />
    <linearGradient
      id="linear-gradient-4"
      x1="462"
      y1="81.58"
      x2="270.92"
      y2="81.58"
      xlink:href="#linear-gradient"
    />
    <linearGradient
      id="linear-gradient-5"
      x1="225.45"
      y1="256.06"
      x2="294.52"
      y2="256.06"
      gradientTransform="translate(-54.4 -19.81)"
      xlink:href="#linear-gradient"
    />
    <linearGradient
      id="linear-gradient-6"
      x1="188.18"
      y1="263.52"
      x2="294.76"
      y2="263.52"
      gradientTransform="translate(-54.4 -19.81)"
      xlink:href="#linear-gradient"
    />
    <linearGradient
      id="linear-gradient-7"
      x1="138.2"
      y1="278.45"
      x2="292.48"
      y2="278.45"
      gradientTransform="translate(-54.4 -19.81)"
      xlink:href="#linear-gradient"
    />
    <linearGradient
      id="linear-gradient-8"
      x1="91.76"
      y1="305.71"
      x2="293.87"
      y2="305.71"
      gradientTransform="translate(-54.4 -19.81)"
      xlink:href="#linear-gradient"
    />
    <linearGradient
      id="linear-gradient-9"
      x1="290.29"
      y1="353.63"
      x2="304.01"
      y2="353.63"
      gradientTransform="translate(-54.4 -19.81)"
      gradientUnits="userSpaceOnUse"
    >
      <stop offset="0" stop-color="#fdecf3" />
      <stop offset="0.11" stop-color="#f5e9f3" />
      <stop offset="0.23" stop-color="#f9f1f2" />
      <stop offset="0.35" stop-color="#fffef1" />
      <stop offset="0.48" stop-color="#fbfcf1" />
      <stop offset="0.6" stop-color="#f1f3f2" />
      <stop offset="0.71" stop-color="#dde5f4" />
      <stop offset="0.71" stop-color="#dce4f4" />
      <stop offset="1" stop-color="#fee9df" />
    </linearGradient>
    <linearGradient
      id="linear-gradient-10"
      x1="290.14"
      y1="353.54"
      x2="304.51"
      y2="353.54"
      xlink:href="#linear-gradient-9"
    />
    <linearGradient
      id="linear-gradient-11"
      x1="297.55"
      y1="359.71"
      x2="297.55"
      y2="409.5"
      gradientTransform="translate(-54.4 -19.81)"
      gradientUnits="userSpaceOnUse"
    >
      <stop offset="0" stop-color="#3d7abe" />
      <stop offset="0.04" stop-color="#3c7fc2" />
      <stop offset="0.09" stop-color="#248fce" />
      <stop offset="0.16" stop-color="#35a2b4" />
      <stop offset="0.23" stop-color="#5abd88" />
      <stop offset="0.31" stop-color="#91c952" />
      <stop offset="0.33" stop-color="#a1cd3e" />
      <stop offset="0.39" stop-color="#c1d83a" />
      <stop offset="0.46" stop-color="#ebe72b" />
      <stop offset="0.5" stop-color="#fdee22" />
      <stop offset="0.73" stop-color="#f68854" />
      <stop offset="0.99" stop-color="#ee3889" />
    </linearGradient>
  </defs>
  <path class="cls-1" d="M295.36,115.68" />
  <path
    class="cls-2"
    d="M485.66,29.87v418a30,30,0,0,1-29.87,29.87H29.87A30,30,0,0,1,0,447.83v-418A30,30,0,0,1,29.87,0H455.79A30,30,0,0,1,485.66,29.87Z"
  />
  <path
    class="cls-3"
    d="M312.4,196.91l-6.22,17.92L245.44,387.09,275.6,225.78v-.5l.25-.74L302.2,87.87C302,87.63,320.6,162.55,312.4,196.91Z"
  />
  <path
    class="cls-4"
    d="M344.76,216.07l-97.58,171h0l-1.24,1,60.24-173.25,6-17.43.25-.49L346,100.06S359.7,172.51,344.76,216.07Z"
  />
  <path
    class="cls-5"
    d="M395.3,227,253.66,382.61h0l-5,3.48L394.05,131.44C394.3,131.19,410.23,202.38,395.3,227Z"
  />
  <path
    class="cls-6"
    d="M445.33,253.66,257.14,380.37l180-198.65S455,225.28,445.33,253.66Z"
  />
  <path
    class="cls-7"
    d="M240.21,385.84,179.48,213.58l-6.23-17.92c-8.46-34.35,10.21-109,10.21-109L209.6,222.79Z"
  />
  <path
    class="cls-8"
    d="M240.21,388.58l-.49-.5h0L140.6,214.83c-14.93-43.56-1.24-116-1.24-116L173,195.41c0,.25,0,.25.25.5l6.23,17.42Z"
  />
  <path
    class="cls-9"
    d="M238,387.09l-3.23-2.24L89.86,225.78c-14.93-24.39,1.25-95.59,1.25-95.59Z"
  />
  <path
    class="cls-10"
    d="M239.47,391.32,46.6,263.87c-21.91-25.89,2-83.39,2-83.39Z"
  />
  <path class="cls-11" d="M244.45,326.6" />
  <path class="cls-12" d="M389.07,440.86" />
  <path class="cls-12" d="M380.11,450.56" />
  <path
    class="cls-13"
    d="M239.22,328.34l8.71,2.49v.5c2-9,3.49-17.43,3.49-17.43s19.41-113,71.44-217.06c1.74-3.24-1.5-6-3.74-3C287,137.9,244.45,207.6,240.21,297.71c-1.49,25.64-1.74,23.65-1,30.62"
  />
  <path
    class="cls-14"
    d="M249.6,325.35v16.93h-8l-5.86-1.16s1.5.41,3.3-12.28v-.5Z"
  />
  <path
    class="cls-15"
    d="M255.65,389.83c-40.83-9,25.39-25.64-7.47-49.79H236c-22.9,48,14.94,49.29,14.94,49.29Z"
  />
  <path
    class="cls-16"
    d="M236.23,339.54s-4.48,10-3,11.95,4-4.73,4-4.73,2.74-4,1.74-.5-5.73,15.44-2.24,11.45,3.48-2,3,.25-9.21,22.16-2.24,9.71c7.21-12.45,7.21-16.43,7.71-13.44s-9,19.66-4.48,13.69,8.71-16.93,8.22-13.19.74,3.73.74,3.73a22.6,22.6,0,0,0,4-4.23c1.24-2,2,6,2.73,4.48,2.49-6.22.25-10.21.25-10.21s-3.73-9.71-7.46-8.71C246.19,340.29,236.23,339.54,236.23,339.54Z"
  />
</svg>
