<svg viewBox="0 0 300 49.76" xmlns="http://www.w3.org/2000/svg">
  <path
    fill="#011a20"
    d="m73.21 9.5c-2.63.46-5.12.89-7.62 1.34-.49.09-1 .42-1.44.31a14.09 14.09 0 0 1 -2.26-1c.57-.57 1.06-1.48 1.73-1.63a88.24 88.24 0 0 1 9.78-1.85 4.54 4.54 0 0 0 3.85-3 11.42 11.42 0 0 1 1.08-2.22 9.82 9.82 0 0 1 1.88-1.45 9.8 9.8 0 0 1 0 2.48 16.34 16.34 0 0 1 -1.43 2.92c1.51 0 2.54.1 3.55 0 4.86-.55 9.67-1.27 14.57-1.66 3.64-.29 7.4-.7 10.95-.11 4.39.74 8.56-.29 12.83-.45 4.68-.17 9.34-.61 14-.67 2.3 0 4.57 1.28 7 .05.3-.15 1.31 1.06 2 1.64-.66.39-1.3 1.1-2 1.13-7.81.26-15.62.43-23.44.57-1.47 0-2.33.53-2.64 2-1 4.57-4 7.66-8 9.55-3 1.38-3.86 3.62-4.08 6.47s1.53 4.34 4.21 3a41.58 41.58 0 0 0 6.69-4.63c1.89-1.51 3.58-3.26 5.36-4.91l.8.53a16.24 16.24 0 0 0 -1.1 3.56 51.2 51.2 0 0 0 .16 5.67c1.62-.68 3.44-1.08 4.8-2.1 1.56-1.17 2.65-2.94 4-4.34a35.8 35.8 0 0 1 4.94-4.45c.78-.53 2.2-.13 3.33-.16-.17 1.12.06 2.62-.58 3.3a57.57 57.57 0 0 1 -5.66 4.69c.74 1.85 2.69 1.65 3.95.93a35.67 35.67 0 0 0 5.93-4.66 20.79 20.79 0 0 0 2.38-3c.38.33.62.45.61.54-.63 5.47-9 12.63-14.37 8.1-.36-.31-1.48 0-2.06.29-1.22.69-2.26 1.7-3.47 2.41-3.66 2.15-6.81.54-7.24-3.64 0-.31-.12-.62-.26-1.29a42.56 42.56 0 0 1 -4 3.17 16.43 16.43 0 0 1 -4.66 2.25c-3.27.79-5.11-.59-6.45-4.53-.89.67-1.7 1.3-2.54 1.9-2.33 1.64-4 1.6-5.93-.42a1.71 1.71 0 0 0 -2.66-.13 15.46 15.46 0 0 1 -1.85 1.26c-2.5 1.48-4.87 1.8-6.71-1-1.49.91-2.73 1.72-4 2.43-4.64 2.54-7.86.59-7.76-4.64 0-.56-.08-1.11-.18-2.36-1.08 1.23-1.8 2-2.51 2.86-3.18 3.56-4.69 3.71-8.69 1.14-.51-.32-1.71 0-2.36.42-2.15 1.29-4.15 2.77-6.94 2-.48-.14-1.26.54-1.82.95-3.38 2.48-6.5 5.43-10.16 7.39-4.13 2.21-8.23-.37-8.26-5.13a46.66 46.66 0 0 1 1.61-10.43c1.12-4.91 2.62-9.73 3.76-14.62.25-1.07-.29-2.32-.47-3.49-1.18.2-2.52.1-3.51.63a44.1 44.1 0 0 0 -15.3 13.94c-4.64 6.65-8.95 13.5-11.4 21.33a1.8 1.8 0 0 1 -.45.88c-.7.58-1.49 1.09-2.24 1.63-.15-.87-.64-1.85-.39-2.58 2.81-8.22 5.82-16.36 8.56-24.61.68-2.06.51-4.39.86-6.58a7.34 7.34 0 0 1 1-1.94c.38.63 1.14 1.32 1.07 1.89-.43 3.17-1 6.33-1.63 9.47-.24 1.27-.66 2.51-1 3.77l.58.31c1.27-1.63 2.6-3.23 3.81-4.91 4.38-6.14 9.41-11.57 16.51-14.76 1.76-.79 3.37-1.09 4.93.05 1.78 1.3 1.88 3.25 1.38 5.18-1.35 5.29-2.86 10.52-4.14 15.82a43.56 43.56 0 0 0 -1.46 8.28c-.17 3.66 2 5 5.36 3.59a11.3 11.3 0 0 0 3.41-2c3.38-3.13 7-5.89 9.67-9.89 1.57-2.4 4.49-4.16 7.15-5.51 1.16-.59 3.33.35 4.79 1.09.42.21 0 2.15-.1 3.29 0 .24-.22.48-.2.71.1 1.09.24 2.18.37 3.27 1-.31 2.17-.36 2.91-1 4.63-3.7 8.26-8.13 9.31-14.63zm37.07-3.35c-1.7 0-3-.06-4.29 0q-5.83.33-11.65.77c-5.22.41-10.43.85-15.63 1.36-.76.07-1.84.37-2.14.91-2.63 4.72-4.78 9.65-5 15.15-.11 2.65 1.51 3.77 3.84 2.45a98 98 0 0 0 8.12-5.56c2-1.41 3.91-2.93 5.92-4.31s3.82-.23 5.26.83c.56.41.09 2.28 0 3.48-.06.81-.33 1.62-.36 2.44 0 1.5 1 2.16 2 1.32 2.07-1.6 4.56-3.22 5.62-5.43 2-4.21 4.09-8.24 7.28-11.66a10.48 10.48 0 0 0 1.03-1.75zm-26.28 19.85c3.15-.27 7.52-3.66 8.18-6.05a1.87 1.87 0 0 0 -.24-1.56 1.63 1.63 0 0 0 -1.57-.07 40.66 40.66 0 0 0 -5 4.32c-.75.8-.89 2.1-1.37 3.36zm-33.41.07c2.87-.57 6.84-3.72 7.6-6 .34-1.07.38-2.07-1.19-1.92-2.81.2-6.63 4.85-6.42 7.95zm55.85-10.88c3.41-.53 6.88-4.65 7.58-8.94-3.7 2.28-5.57 5.45-7.59 8.97z"
  />
  <path
    fill="#011a20"
    d="m208 16.64-6.4 2.79c-.64-3.22-.19-3.71 2.93-3.79a38.89 38.89 0 0 0 3.84-.84c.72-.1 1.78-.11 2.18.31a2.4 2.4 0 0 1 .17 2.18c-.82 1.71-1.93 3.27-2.86 4.93a9.44 9.44 0 0 0 -.91 2.29c-.1.42 0 1.21.25 1.32a1.76 1.76 0 0 0 1.54-.07c1.56-1.22 3.05-2.53 4.5-3.88s3-2.94 4.5-4.42l.64.37c-.14.75-.24 1.5-.42 2.23a21.39 21.39 0 0 0 -.94 3.57 16.21 16.21 0 0 0 .53 3.48 11.81 11.81 0 0 0 3.21-.91 23.14 23.14 0 0 0 2.9-2.64c2.52-2.22 5-4.52 7.64-6.56 1.41-1.09 4.85-.44 5.65 1 .36.64 0 1.68 0 2.55 0 1.54 0 3.09-.06 4.63a19 19 0 0 0 4-2 34.69 34.69 0 0 0 4.64-4.82c1.34-1.66 2.29-1.81 3.12.47 1.09-.65 2-1.3 3-1.82 2-1 3.76 0 3.78 2.21 0 1.39-.33 2.79-.44 4.19-.13 1.6.65 2.4 2.05 1.4a44.45 44.45 0 0 0 7.17-5.89c2-2.19 1.89-2.46 3.61-.2.9-.56 1.78-1.17 2.73-1.66 2.12-1.11 3.88-.08 3.87 2.31a34.19 34.19 0 0 1 -.38 3.46c-.24 2.4.35 3 2.34 1.78a66.11 66.11 0 0 0 6.28-4.73 60.08 60.08 0 0 1 5.32-4 2.8 2.8 0 0 1 2.59.38 2.37 2.37 0 0 1 -.06 2.36c-1.83 1.94-3.89 3.66-6.08 5.65.72 1.7 2.7 1.5 3.94.74a44 44 0 0 0 6.22-5.07 24.94 24.94 0 0 0 2.27-2.82c.5 3.3-2.79 7.77-6.49 9.4s-6.14 1.08-8.94-2.37a19.79 19.79 0 0 1 -4.13 2.37 7.1 7.1 0 0 1 -4.59.09c-1.69-.78-1.52-2.69-1-4.42a31.61 31.61 0 0 0 .65-4 20.14 20.14 0 0 0 -7.26 7.47c0 .07 0 .17-.09.23l-2.8 3.38c-.32-1.36-.64-2.72-1-4.25a12.33 12.33 0 0 1 -3.17 1.67 7.32 7.32 0 0 1 -4.38-.09c-1.57-.75-1.5-2.54-1-4.2a10.06 10.06 0 0 0 .33-3.63 16.65 16.65 0 0 0 -6.88 6.93c-.08.15-.08.35-.19.46-.9 1-1.82 2.07-2.74 3.1-.32-1.29-.65-2.59-1-4l-2 1.33c-2.36 1.62-3.85 1.44-6-.35a2.71 2.71 0 0 0 -2.44-.32c-2.5 1.41-4.72 3.61-7.94 1.63-.27-.17-1 .34-1.51.63-4.59 2.78-7.37 1.65-8.46-3.66-1.59 1.09-3.11 2.15-4.65 3.18s-3.09 1.05-4-.33a4.63 4.63 0 0 1 -.37-3.76 53.09 53.09 0 0 1 3.65-6.35zm18.45 9.75a13.71 13.71 0 0 0 7.47-6.16 2.4 2.4 0 0 0 -.11-1.81c-.08-.21-.89-.27-1.33-.18-2.34.46-6.02 5.2-6.04 8.15z"
  />
  <path
    fill="#011a20"
    d="m156.51 35.74c.89-1.3.83-2-.68-2.91-2.31-1.35-4.41-3.07-6.59-4.64l.38-.49 8.85 4.83 5.38-9.6c-2.31-2.05-2.17-2.31.45-4a10.26 10.26 0 0 0 3.12-3.54c1.26-2.22 2.21-4.62 3.27-7 .25-.56.4-1.17.79-2.36-1.5.52-2.5.76-3.41 1.19-5.71 2.7-11.33 5.53-15.55 10.45-.3.34-.93.39-1.41.57 0-.64-.33-1.57 0-1.89a44.84 44.84 0 0 1 6.2-5.67c7.75-5.31 16.18-9 25.66-10 4.44-.47 8.82-.57 12.93 1.46 2.83 1.39 3.51 3.92 1.92 6.62-2.54 4.32-6.85 6.34-11.09 8.46l-1.76.86c.81.53 1.26.87 1.76 1.15a80.67 80.67 0 0 1 7.09 4c4.68 3.35 4.66 9.12.08 12.62-4.13 3.17-9 4.15-14 4.28a36.22 36.22 0 0 1 -18.14-4.41c-1.73-.91-2.65-.53-3.63 1.09a61.56 61.56 0 0 1 -3.93 5.48 52 52 0 0 1 -4 5.15c-.16-.6.3-1.25.47-1.81.32-1 .61-2 .88-3m27.36-4.42c3.78-.18 8.2-.76 12.18-3.1 2.63-1.55 4.61-5 3.87-6.94a10.65 10.65 0 0 0 -5.73-5.88c-6.5-3.12-13.1-1.76-19.73-.72a5.4 5.4 0 0 0 -4.45 3.4 71.61 71.61 0 0 1 -3.47 6.3c-.83 1.44-.65 2.29 1 3.08a38 38 0 0 0 16.33 3.96zm-9-21.58.35 1c4-.44 8.19-.42 12.08-1.43 4.62-1.21 9.16-3.11 12.25-7.07.83-1.06 1.78-3 1.34-3.82a4.91 4.91 0 0 0 -3.77-2.18c-4.7.06-9.39.53-14.06 1-1 .1-2.52.6-2.93 1.38-1.97 3.72-3.59 7.49-5.31 11.22z"
  />
  <path
    fill="#011a20"
    d="m126.77 8.27c-.45 1.81-3.57 4.79-5.23 4.91a1.47 1.47 0 0 1 -1.17-.56 1.37 1.37 0 0 1 .22-1.3c1.86-1.31 3.8-2.52 5.71-3.76z"
  />
  <path
    fill="#011a20"
    d="m224.67 8.27c-.45 1.81-3.57 4.79-5.23 4.91a1.44 1.44 0 0 1 -1.16-.56 1.35 1.35 0 0 1 .21-1.3c1.86-1.31 3.8-2.52 5.71-3.76z"
  />
  <path fill="#011a20" d="m153.12 5.29c-2.9-.54-6.14 1.33-8.71-1.56l8.9.71z" />
</svg>
